<svg xmlns="http://www.w3.org/2000/svg" viewBox="0 0 152 47" xml:space="preserve"><path fill="#F8991D" d="M151.71 17.35c-0.41-5.17-4.19-9.23-9.2-9.7-2.33-0.19-4.74-0.33-7.19-0.43-0.25-1.59-0.59-2.82-1.02-3.69-1.09-2.22-3.22-3.29-6.51-3.29-0.03 0-0.06 0-0.1 0v0h-4V0.24c-3.26 0.02-5.38 1.09-6.47 3.27-0.45 0.89-0.8 2.16-1.06 3.82-1.87 0.1-3.7 0.22-5.48 0.37-5 0.53-8.74 4.58-9.14 9.69-0.36 5.93-0.39 11.98-0.06 17.91 0.39 5.19 4.11 9.29 9.12 9.75 10.14 0.81 21.87 0.82 32.01 0.04 5.06-0.49 8.82-4.59 9.18-9.76C152.1 29.33 152.07 23.27 151.71 17.35zM120.03 7.16c0.1-1.02 0.22-1.66 0.33-2.04 0.28-0.99 1.08-2.17 3.28-2.2v0h4.09V2.91c0.01 0 0.01 0 0.02 0 1.77 0 2.93 0.77 3.35 2.24 0.11 0.38 0.23 0.99 0.33 1.95C127.63 7.02 123.79 7.04 120.03 7.16z"/><path fill="#fff" d="M121.53 20.84c0 1.44-0.5 2.25-1.99 2.25h-1.61v-7.15h1.69c1.49 0 1.91 0.54 1.91 1.97V20.84zM125.92 37.98l-2.44-12.8c1.88-0.77 2.13-1.88 2.13-3.89v-3.73c0-3.19-2.55-4.19-7.5-4.19h-4.2v24.62h4.02V25.89h2.08l1.73 12.09H125.92z"/><path fill="#fff" d="M133.43 38.33c-4.89 0-5.93-1.79-5.93-5.78V13.45h4.13V33.32c0 1.44 0.66 2.12 1.8 2.12 1.13 0 1.86-0.57 1.86-2.08V13.45h4.03v19.06C139.31 36.5 138.31 38.33 133.43 38.33z"/><path fill="#225999" d="M35.93 16.22v21.81h-4.11V16.22h-3.78V13.36h11.67v2.86H35.93z"/><path fill="#225999" d="M48.36 38.03V16.22h-3.56v21.81h-4.19V13.36h11.9v24.67H48.36z"/><polygon fill="#225999" points="96.34 38.03 90.48 24.3 94.85 13.36 90.81 13.36 87.13 23.2 87.13 13.36 83.1 13.36 83.1 38.03 87.13 38.03 87.13 25.33 92.1 38.03 "/><path fill="#225999" d="M20.73 7.62c2.79 0 4.59 1 5.52 3.05 0.91 2.01 1.35 6.05 1.35 12.35 0 6.3-0.45 10.33-1.36 12.34-0.93 2.03-2.75 3.02-5.55 3.02-2.79 0-4.59-1-5.53-3.04-0.92-2.01-1.36-6.04-1.36-12.31 0-6.32 0.45-10.37 1.37-12.37l0 0C16.1 8.61 17.92 7.62 20.73 7.62zM20.71 35.37c1.13 0 1.86-0.69 2.13-2 0.2-0.97 0.43-3.55 0.43-10.35 0-6.87-0.23-9.45-0.43-10.41-0.27-1.3-1-1.98-2.13-1.98-1.45 0-1.97 1.07-2.15 1.96-0.19 0.95-0.42 3.53-0.42 10.44 0 6.84 0.24 9.41 0.44 10.37l0 0C18.84 34.68 19.58 35.37 20.71 35.37z"/><path fill="#225999" d="M12.04 27.76v5.91c0 3.37-1.93 4.42-6.48 4.36H0V13.36h4.92c4.8 0 6.74 0.74 6.97 4.07v3.08c0 1.6-0.25 3.21-2.23 3.85C11.7 24.85 12.04 26.11 12.04 27.76zM4.12 23.09H5.83c2.3 0 2.1-1.69 2.1-1.78v-3.29c0-1.51-0.89-1.87-2.16-1.86H4.12V23.09zM7.92 28.31c-0.05-1.95-0.82-2.33-2.22-2.44h-1.59v9.29h1.65c1.4-0.09 2.16-0.31 2.16-1.93V28.31z"/><path fill="#225999" d="M66.9 33.2c0-0.26 0.01-0.52 0.01-0.8V13.36h-4.03v19.41c-0.03 1.2-0.02 1.47-0.06 2.38-2.77 1-3.59-1.04-3.59-2.41V13.36h-4.13v18.51c-0.12 3.68 1.37 7.01 6.34 6.57 0.41-0.04 0.79-0.08 1.14-0.13-0.36 2.53-1.45 4.82-5.58 5.4l0.55 3.05C66.87 45.63 67.04 35.94 66.9 33.2z"/><path fill="#225999" d="M76.93 28.84v0.63c-0.02 2.99-0.16 5.94-2.18 5.91-1.16-0.02-1.57-0.88-1.73-1.66-0.22-1.07-0.35-2.1-0.44-8.03 0.09-5.93 0.22-6.97 0.44-8.04 0.16-0.78 0.58-1.64 1.73-1.66 1.82-0.03 2.16 2.19 2.28 4.68v0.63l3.76 0.01-0.02-0.64c-0.16-2.54-0.51-4.07-1.02-5.1-0.92-1.88-3-2.52-4.99-2.52-2.32 0-3.91 0.59-4.97 2.51-0.89 1.6-1.28 4.94-1.29 10.09H68.51c0 0.02 0 0.03 0 0.05 0 0.02 0 0.03 0 0.05h0c0.01 5.15 0.4 8.48 1.29 10.09 1.06 1.91 2.66 2.5 4.97 2.5 1.99 0 4.06-0.64 4.99-2.52 0.56-1.15 1.03-3.21 1.11-6.33v-0.63H76.93z"/></svg>